<?xml version="1.0" encoding="UTF-8" standalone="no"?>
<svg
   height="24"
   viewBox="0 0 24 24"
   width="24"
   version="1.1"
   id="svg2"
   sodipodi:docname="action_debug.svg"
   inkscape:version="1.4.2 (ebf0e940d0, 2025-05-08)"
   xmlns:inkscape="http://www.inkscape.org/namespaces/inkscape"
   xmlns:sodipodi="http://sodipodi.sourceforge.net/DTD/sodipodi-0.dtd"
   xmlns="http://www.w3.org/2000/svg"
   xmlns:svg="http://www.w3.org/2000/svg">
  <defs
     id="defs2" />
  <sodipodi:namedview
     id="namedview2"
     pagecolor="#505050"
     bordercolor="#eeeeee"
     borderopacity="1"
     inkscape:showpageshadow="0"
     inkscape:pageopacity="0"
     inkscape:pagecheckerboard="0"
     inkscape:deskcolor="#d1d1d1"
     inkscape:zoom="17.103145"
     inkscape:cx="6.0222841"
     inkscape:cy="12.541553"
     inkscape:window-width="2560"
     inkscape:window-height="1370"
     inkscape:window-x="0"
     inkscape:window-y="0"
     inkscape:window-maximized="1"
     inkscape:current-layer="svg2" />
  <g
     fill-rule="evenodd"
     id="g2">
    <path
       d="m19.500042 12.00005-15.0000421 9.499991v-19.0000822z"
       fill="#5a8c5a"
       stroke="#4c734c"
       stroke-linecap="round"
       stroke-linejoin="round"
       id="path1" />
    <path
       d="m6.0051239 19.968373-.0019935-15.9190259-1.0013759-.6415651.0001337 17.169528z"
       fill="#fff"
       fill-opacity=".52907"
       id="path2" />
  </g>
  <path
     d="m 15.23123,22 q -1.14747,0 -2.074615,-0.628183 -0.927143,-0.628002 -1.506949,-1.630703 l -1.274303,0.730918 q -0.217428,0.120672 -0.4529731,0.05436 -0.235546,-0.0665 -0.356399,-0.283923 -0.120672,-0.217428 -0.06034,-0.458953 0.06034,-0.241706 0.277762,-0.362377 L 11.154472,18.623903 Q 11.076012,18.35212 11.0155,18.077256 10.95516,17.802391 10.91892,17.530608 H 9.3123259 q -0.259644,0 -0.431774,-0.172128 -0.172129,-0.172131 -0.172129,-0.431774 0,-0.259645 0.172129,-0.431776 0.17213,-0.172128 0.431774,-0.172128 H 10.91893 q 0.03624,-0.277943 0.09658,-0.552626 0.06052,-0.274863 0.138972,-0.546648 l -1.3830191,-0.80937 q -0.217427,-0.120673 -0.271783,-0.36238 -0.05436,-0.241525 0.06631,-0.458952 0.120853,-0.217427 0.359479,-0.274864 0.2384441,-0.05726 0.4558721,0.06342 l 1.250205,0.730916 q 0.157091,-0.277943 0.353318,-0.52255 0.196409,-0.244604 0.407676,-0.46801 -0.03624,-0.138972 -0.04819,-0.271784 -0.01213,-0.132812 -0.01213,-0.271784 0,-0.483231 0.169049,-0.936204 0.169231,-0.452973 0.471092,-0.82133 l -0.772968,-0.760998 q -0.175209,-0.1752096 -0.178289,-0.4227136 -0.0029,-0.2476855 0.178289,-0.4288747 0.175029,-0.181189 0.425795,-0.1842693 0.250583,-0.0029 0.431773,0.1721296 l 0.84561,0.833469 q 0.308022,-0.1750276 0.63706,-0.2627236 0.329221,-0.08751 0.691599,-0.08751 0.362379,0 0.694498,0.09059 0.332301,0.09059 0.640322,0.2658046 l 0.85159,-0.8396302 q 0.181189,-0.181189 0.422714,-0.1721296 0.241525,0.00907 0.422715,0.1902486 0.175209,0.1811891 0.17829,0.4228956 0.0029,0.241525 -0.17829,0.4227136 l -0.772954,0.773134 q 0.289903,0.368358 0.455872,0.815351 0.166151,0.446812 0.166151,0.930044 0,0.138972 -0.006,0.262724 -0.0062,0.123752 -0.0424,0.262724 0.211447,0.223406 0.401696,0.471092 0.190248,0.247685 0.347339,0.525449 l 1.274304,-0.718778 q 0.217426,-0.120672 0.452973,-0.05726 0.235545,0.06342 0.356398,0.280842 0.120672,0.217428 0.05726,0.462033 -0.06342,0.244606 -0.280843,0.365278 l -1.370877,0.779113 q 0.09059,0.271783 0.14785,0.546649 0.05744,0.274862 0.09368,0.564764 h 1.606604 q 0.259643,0 0.431773,0.17213 0.172167,0.172131 0.172167,0.431773 0,0.259644 -0.17213,0.431775 -0.17213,0.172129 -0.431773,0.172129 h -1.606604 q -0.03624,0.277943 -0.09059,0.558787 -0.05436,0.280844 -0.144951,0.552626 l 1.371058,0.797231 q 0.217426,0.120673 0.277763,0.365278 0.06034,0.244605 -0.06034,0.462033 -0.120853,0.217427 -0.356399,0.271783 -0.235545,0.05436 -0.452971,-0.06631 l -1.274329,-0.730921 q -0.579805,1.002701 -1.50695,1.630702 -0.927145,0.628183 -2.074616,0.628183 z m -1.6548,-9.747972 q 0.380497,-0.199309 0.800131,-0.298963 0.419815,-0.09965 0.854669,-0.09965 0.434855,0 0.84253,0.09657 0.407675,0.09675 0.788172,0.283924 -0.120852,-0.537588 -0.591944,-0.942184 -0.471091,-0.404595 -1.038758,-0.404595 -0.567665,0 -1.050897,0.407676 -0.483231,0.407675 -0.603903,0.957223 z m 1.6548,8.539984 q 1.371059,0 2.255806,-1.201828 0.884746,-1.201826 0.884746,-2.663476 0,-1.32866 -0.83039,-2.596984 -0.83039,-1.268325 -2.310162,-1.268325 -1.47361,0 -2.307081,1.265245 -0.833468,1.265243 -0.833468,2.600064 0,1.461649 0.884745,2.663476 0.884746,1.201828 2.255804,1.201828 z m 0,-1.691038 q -0.259643,0 -0.431774,-0.172129 -0.172129,-0.17213 -0.172129,-0.431775 v -3.140729 q 0,-0.259644 0.172129,-0.431773 0.172131,-0.172131 0.431774,-0.172131 0.259645,0 0.431774,0.172131 0.17213,0.172129 0.17213,0.431773 v 3.140729 q 0,0.259645 -0.17213,0.431775 -0.172129,0.172129 -0.431774,0.172129 z"
     id="path1-3"
     style="fill:#ffffff;fill-opacity:1;stroke-width:0.0416666" />
</svg>
