<?xml version="1.0" encoding="UTF-8" standalone="no"?>
<svg
   width="64"
   height="64"
   viewBox="0 0 64 64"
   fill="none"
   version="1.1"
   id="svg4"
   sodipodi:docname="devtools_logo.svg"
   inkscape:version="1.4.2 (ebf0e940d0, 2025-05-08)"
   xmlns:inkscape="http://www.inkscape.org/namespaces/inkscape"
   xmlns:sodipodi="http://sodipodi.sourceforge.net/DTD/sodipodi-0.dtd"
   xmlns="http://www.w3.org/2000/svg"
   xmlns:svg="http://www.w3.org/2000/svg">
  <sodipodi:namedview
     id="namedview4"
     pagecolor="#505050"
     bordercolor="#eeeeee"
     borderopacity="1"
     inkscape:showpageshadow="0"
     inkscape:pageopacity="0"
     inkscape:pagecheckerboard="0"
     inkscape:deskcolor="#d1d1d1"
     showguides="true"
     inkscape:zoom="11.313708"
     inkscape:cx="41.630912"
     inkscape:cy="45.917747"
     inkscape:window-width="2560"
     inkscape:window-height="1370"
     inkscape:window-x="0"
     inkscape:window-y="0"
     inkscape:window-maximized="1"
     inkscape:current-layer="svg4" />
  <path
     d="m 63.969663,48.656905 c 0,1.959129 -1.239432,4.197989 -3.558294,5.077611 -2.318939,0.879545 -22.389382,8.795828 -25.148131,9.635411 -2.718711,0.799621 -3.798141,0.879622 -6.037079,0 C 26.98722,62.490383 5.4374213,54.734023 3.5583164,53.734516 1.6792035,52.774972 0,50.616034 0,48.656905 V 3.5583164 C 0,1.5992416 1.5992416,0 3.5583164,0 H 60.411369 c 1.959051,0 3.558294,1.5992416 3.558294,3.5583164 z"
     fill="#31b7da"
     id="path1"
     inkscape:label="bg"
     style="stroke-width:0.999996"
     sodipodi:nodetypes="sccccssssss" />
  <defs
     id="defs4">
    <clipPath
       clipPathUnits="userSpaceOnUse"
       id="clipPath4">
      <rect
         width="826"
         height="826"
         fill="#ffffff"
         id="rect5"
         x="0"
         y="0"
         transform="scale(1,-1)" />
    </clipPath>
  </defs>
  <g
     id="g2"
     transform="matrix(0.32517384,0,0,0.32517384,11.210823,7.8003652)"
     inkscape:label="qgis_icon"
     style="stroke-width:3.07527">
    <polygon
       id="polygon1"
       points="68.613,69.625 86.891,69.625 71.697,54.625 52.613,54.625 52.613,72.746 68.613,88.548 "
       style="fill:#ffffff;fill-opacity:1;stroke-width:3.07527" />
    <polygon
       id="polygon2"
       points="126.613,109.057 94.488,77.625 76.613,77.625 76.613,96.033 107.143,126.625 126.613,126.625 "
       style="fill:#ffffff;fill-opacity:1;stroke-width:3.07527" />
    <path
       id="path24"
       style="display:inline;fill:#ffffff;fill-opacity:1;stroke-width:1;stroke-linejoin:bevel"
       transform="matrix(3.0752781,0,0,3.0752781,-34.476399,-23.988293)"
       d="m 32,4.8378906 a 24.684883,23.282343 0 0 0 -3.488281,0.234375 L 26.332031,10.669922 C 28.168742,10.13913 30.079009,9.8692413 32,9.8691406 c 2.050789,-2.558e-4 4.088585,0.3069634 6.037109,0.9101564 L 35.982422,5.1445312 A 24.684883,23.282343 0 0 0 32,4.8378906 Z M 17.603516,9.2089844 a 24.684883,23.282343 0 0 0 -5.341797,4.9316406 l 2.652343,5.408203 c 1.876315,-3.326999 4.798445,-6.024666 8.365235,-7.722656 L 17.605469,9.2089844 Z m 29.222656,0.296875 -5.738281,2.4999996 c 3.527366,1.769923 6.387417,4.526269 8.1875,7.890625 l 2.773437,-5.357422 A 24.684883,23.282343 0 0 0 46.826172,9.5058594 Z M 13.623047,22.402344 7.6425781,24.337891 a 24.684883,23.282343 0 0 0 -0.328125,3.783203 24.684883,23.282343 0 0 0 0.2441407,3.263672 l 5.9316402,2.060546 c -0.558054,-1.725742 -0.84174,-3.51999 -0.841796,-5.324218 7.4e-5,-1.943027 0.329084,-3.873581 0.974609,-5.71875 z m 36.886719,0.396484 c 0.557853,1.725116 0.841534,3.518692 0.841796,5.322266 -7.4e-5,1.943027 -0.329084,3.87358 -0.974609,5.71875 l 5.980469,-1.935547 a 24.684883,23.282343 0 0 0 0.328125,-3.783203 24.684883,23.282343 0 0 0 -0.244141,-3.261719 z m -35.785157,13.546875 -2.773437,5.359375 a 24.684883,23.282343 0 0 0 5.222656,5.03125 l 5.738281,-2.5 c -3.527366,-1.769923 -6.387417,-4.52627 -8.1875,-7.890625 z m 11.238282,9.117188 2.054687,5.634765 A 24.684883,23.282343 0 0 0 32,51.404297 24.684883,23.282343 0 0 0 35.488281,51.169922 l 1.691407,-4.345703 -0.923829,-0.898438 C 34.860445,46.222617 33.433466,46.372973 32,46.373047 29.949211,46.373303 27.911415,46.066083 25.962891,45.462891 Z M 33.62278,40.82242 c -0.378828,0.07869 -0.575233,0.05105 -1.523439,0.05105 -6.785078,0 -12.555613,-5.579333 -12.555613,-12.813801 0,-7.234467 5.707126,-12.690559 12.555613,-12.690559 6.848486,0 12.302302,5.456417 12.302302,12.690559 0,1.176805 -0.146654,2.30841 -0.417524,3.381158 l 6.280083,6.279432 c 1.61904,-2.837467 2.524975,-6.135705 2.524975,-9.708715 0,-11.149886 -8.897732,-19.4983995 -20.816329,-19.4983995 C 20.108555,8.5128213 11.210823,16.80638 11.210823,28.011221 c 0,11.259144 8.897732,19.717891 20.7617,19.717891 3.062162,0 5.225218,-0.47768 7.492655,-1.222979 z" />
  </g>
</svg>
